<svg width="72" height="56" viewBox="0 0 72 56" fill="none" xmlns="http://www.w3.org/2000/svg">
<path d="M18.6777 41.6035V40.25C18.8327 40.3867 19.0173 40.5098 19.2314 40.6191C19.4502 40.7285 19.6781 40.8219 19.915 40.8994C20.1566 40.9723 20.3981 41.0293 20.6396 41.0703C20.8812 41.1113 21.1045 41.1318 21.3096 41.1318C22.016 41.1318 22.5423 41.002 22.8887 40.7422C23.2396 40.4779 23.415 40.0996 23.415 39.6074C23.415 39.3431 23.3558 39.113 23.2373 38.917C23.1234 38.721 22.9639 38.5433 22.7588 38.3838C22.5537 38.2197 22.3099 38.0648 22.0273 37.9189C21.7493 37.7686 21.4486 37.6113 21.125 37.4473C20.7832 37.2741 20.4642 37.0986 20.168 36.9209C19.8717 36.7432 19.6143 36.5472 19.3955 36.333C19.1768 36.1188 19.0036 35.8773 18.876 35.6084C18.7529 35.335 18.6914 35.016 18.6914 34.6514C18.6914 34.2048 18.7894 33.8174 18.9854 33.4893C19.1813 33.1566 19.4388 32.8831 19.7578 32.6689C20.0768 32.4548 20.4391 32.2952 20.8447 32.1904C21.2549 32.0856 21.6719 32.0332 22.0957 32.0332C23.0618 32.0332 23.766 32.1494 24.208 32.3818V33.6738C23.6292 33.2728 22.8864 33.0723 21.9795 33.0723C21.7288 33.0723 21.4782 33.0996 21.2275 33.1543C20.9769 33.2044 20.7536 33.2887 20.5576 33.4072C20.3617 33.5257 20.2021 33.6784 20.0791 33.8652C19.9561 34.0521 19.8945 34.2799 19.8945 34.5488C19.8945 34.7995 19.9401 35.016 20.0312 35.1982C20.127 35.3805 20.266 35.5469 20.4482 35.6973C20.6305 35.8477 20.8516 35.9935 21.1113 36.1348C21.3757 36.276 21.6787 36.431 22.0205 36.5996C22.3714 36.7728 22.7041 36.9551 23.0186 37.1465C23.333 37.3379 23.6087 37.5498 23.8457 37.7822C24.0827 38.0146 24.2695 38.2721 24.4062 38.5547C24.5475 38.8372 24.6182 39.1608 24.6182 39.5254C24.6182 40.0085 24.5225 40.4186 24.3311 40.7559C24.1442 41.0885 23.889 41.3597 23.5654 41.5693C23.2464 41.779 22.8773 41.9294 22.458 42.0205C22.0387 42.1162 21.5967 42.1641 21.1318 42.1641C20.9769 42.1641 20.7855 42.1504 20.5576 42.123C20.3298 42.1003 20.0973 42.0638 19.8604 42.0137C19.6234 41.9681 19.3978 41.9111 19.1836 41.8428C18.974 41.7699 18.8053 41.6901 18.6777 41.6035ZM32.0488 38.7803H27.1064C27.1247 39.5596 27.3343 40.1611 27.7354 40.585C28.1364 41.0088 28.6878 41.2207 29.3896 41.2207C30.1781 41.2207 30.9027 40.9609 31.5635 40.4414V41.4941C30.9482 41.9408 30.1348 42.1641 29.123 42.1641C28.1341 42.1641 27.3571 41.8473 26.792 41.2139C26.2269 40.5758 25.9443 39.6803 25.9443 38.5273C25.9443 37.4382 26.252 36.5518 26.8672 35.8682C27.487 35.18 28.2549 34.8359 29.1709 34.8359C30.0869 34.8359 30.7956 35.1322 31.2969 35.7246C31.7982 36.3171 32.0488 37.1396 32.0488 38.1924V38.7803ZM30.9004 37.8301C30.8958 37.1829 30.7386 36.6794 30.4287 36.3193C30.1234 35.9593 29.6973 35.7793 29.1504 35.7793C28.6217 35.7793 28.1729 35.9684 27.8037 36.3467C27.4346 36.7249 27.2067 37.2194 27.1201 37.8301H30.9004ZM37.4014 36.1348C37.2054 35.9844 36.9229 35.9092 36.5537 35.9092C36.0752 35.9092 35.6742 36.1348 35.3506 36.5859C35.0316 37.0371 34.8721 37.6523 34.8721 38.4316V42H33.751V35H34.8721V36.4424H34.8994C35.0589 35.9502 35.3027 35.5674 35.6309 35.2939C35.959 35.016 36.3258 34.877 36.7314 34.877C37.0231 34.877 37.2464 34.9089 37.4014 34.9727V36.1348ZM39.1924 33.2227C38.9919 33.2227 38.821 33.1543 38.6797 33.0176C38.5384 32.8809 38.4678 32.7077 38.4678 32.498C38.4678 32.2884 38.5384 32.1152 38.6797 31.9785C38.821 31.8372 38.9919 31.7666 39.1924 31.7666C39.3975 31.7666 39.5706 31.8372 39.7119 31.9785C39.8577 32.1152 39.9307 32.2884 39.9307 32.498C39.9307 32.6986 39.8577 32.8695 39.7119 33.0107C39.5706 33.152 39.3975 33.2227 39.1924 33.2227ZM39.7393 42H38.6182V35H39.7393V42ZM47.6348 38.7803H42.6924C42.7106 39.5596 42.9202 40.1611 43.3213 40.585C43.7223 41.0088 44.2738 41.2207 44.9756 41.2207C45.764 41.2207 46.4886 40.9609 47.1494 40.4414V41.4941C46.5342 41.9408 45.7207 42.1641 44.709 42.1641C43.7201 42.1641 42.943 41.8473 42.3779 41.2139C41.8128 40.5758 41.5303 39.6803 41.5303 38.5273C41.5303 37.4382 41.8379 36.5518 42.4531 35.8682C43.0729 35.18 43.8408 34.8359 44.7568 34.8359C45.6729 34.8359 46.3815 35.1322 46.8828 35.7246C47.3841 36.3171 47.6348 37.1396 47.6348 38.1924V38.7803ZM46.4863 37.8301C46.4818 37.1829 46.3245 36.6794 46.0146 36.3193C45.7093 35.9593 45.2832 35.7793 44.7363 35.7793C44.2077 35.7793 43.7588 35.9684 43.3896 36.3467C43.0205 36.7249 42.7926 37.2194 42.7061 37.8301H46.4863ZM48.9131 41.7471V40.5439C49.5238 40.9951 50.196 41.2207 50.9297 41.2207C51.9141 41.2207 52.4062 40.8926 52.4062 40.2363C52.4062 40.0495 52.363 39.8923 52.2764 39.7646C52.1943 39.6325 52.0804 39.5163 51.9346 39.416C51.7933 39.3158 51.6247 39.2269 51.4287 39.1494C51.2373 39.0674 51.0299 38.9831 50.8066 38.8965C50.4967 38.7734 50.2233 38.6504 49.9863 38.5273C49.7539 38.3997 49.5579 38.2585 49.3984 38.1035C49.2435 37.944 49.125 37.764 49.043 37.5635C48.9655 37.363 48.9268 37.1283 48.9268 36.8594C48.9268 36.5312 49.002 36.2419 49.1523 35.9912C49.3027 35.736 49.5033 35.5241 49.7539 35.3555C50.0046 35.1823 50.2894 35.0524 50.6084 34.9658C50.932 34.8792 51.2646 34.8359 51.6064 34.8359C52.2126 34.8359 52.7549 34.9408 53.2334 35.1504V36.2852C52.7184 35.9479 52.126 35.7793 51.4561 35.7793C51.2464 35.7793 51.0573 35.8044 50.8887 35.8545C50.7201 35.9001 50.5742 35.9661 50.4512 36.0527C50.3327 36.1393 50.2393 36.2441 50.1709 36.3672C50.1071 36.4857 50.0752 36.6178 50.0752 36.7637C50.0752 36.946 50.1071 37.0986 50.1709 37.2217C50.2393 37.3447 50.3372 37.4541 50.4648 37.5498C50.5924 37.6455 50.7474 37.7321 50.9297 37.8096C51.112 37.887 51.3193 37.9714 51.5518 38.0625C51.8617 38.181 52.1396 38.304 52.3857 38.4316C52.6318 38.5547 52.8415 38.696 53.0146 38.8555C53.1878 39.0104 53.32 39.1904 53.4111 39.3955C53.5068 39.6006 53.5547 39.8444 53.5547 40.127C53.5547 40.4733 53.4772 40.7741 53.3223 41.0293C53.1719 41.2845 52.9691 41.4964 52.7139 41.665C52.4587 41.8337 52.1647 41.959 51.832 42.041C51.4993 42.123 51.1507 42.1641 50.7861 42.1641C50.0661 42.1641 49.4417 42.0251 48.9131 41.7471Z" fill="black"/>
<path d="M39 23C38.8022 23 38.6089 23.0586 38.4444 23.1685C38.28 23.2784 38.1518 23.4346 38.0761 23.6173C38.0004 23.8 37.9806 24.0011 38.0192 24.1951C38.0578 24.3891 38.153 24.5673 38.2929 24.7071C38.4327 24.847 38.6109 24.9422 38.8049 24.9808C38.9989 25.0194 39.2 24.9996 39.3827 24.9239C39.5654 24.8482 39.7216 24.72 39.8315 24.5556C39.9414 24.3911 40 24.1978 40 24C40 23.7348 39.8946 23.4804 39.7071 23.2929C39.5196 23.1054 39.2652 23 39 23ZM33 23H30C29.7348 23 29.4804 23.1054 29.2929 23.2929C29.1054 23.4804 29 23.7348 29 24C29 24.2652 29.1054 24.5196 29.2929 24.7071C29.4804 24.8946 29.7348 25 30 25H33C33.2652 25 33.5196 24.8946 33.7071 24.7071C33.8946 24.5196 34 24.2652 34 24C34 23.7348 33.8946 23.4804 33.7071 23.2929C33.5196 23.1054 33.2652 23 33 23ZM42 23C41.8022 23 41.6089 23.0586 41.4444 23.1685C41.28 23.2784 41.1518 23.4346 41.0761 23.6173C41.0004 23.8 40.9806 24.0011 41.0192 24.1951C41.0578 24.3891 41.153 24.5673 41.2929 24.7071C41.4327 24.847 41.6109 24.9422 41.8049 24.9808C41.9989 25.0194 42.2 24.9996 42.3827 24.9239C42.5654 24.8482 42.7216 24.72 42.8315 24.5556C42.9414 24.3911 43 24.1978 43 24C43 23.7348 42.8946 23.4804 42.7071 23.2929C42.5196 23.1054 42.2652 23 42 23ZM39 17C38.8022 17 38.6089 17.0586 38.4444 17.1685C38.28 17.2784 38.1518 17.4346 38.0761 17.6173C38.0004 17.8 37.9806 18.0011 38.0192 18.1951C38.0578 18.3891 38.153 18.5673 38.2929 18.7071C38.4327 18.847 38.6109 18.9422 38.8049 18.9808C38.9989 19.0194 39.2 18.9996 39.3827 18.9239C39.5654 18.8482 39.7216 18.72 39.8315 18.5556C39.9414 18.3911 40 18.1978 40 18C40 17.7348 39.8946 17.4804 39.7071 17.2929C39.5196 17.1054 39.2652 17 39 17ZM33 17H30C29.7348 17 29.4804 17.1054 29.2929 17.2929C29.1054 17.4804 29 17.7348 29 18C29 18.2652 29.1054 18.5196 29.2929 18.7071C29.4804 18.8946 29.7348 19 30 19H33C33.2652 19 33.5196 18.8946 33.7071 18.7071C33.8946 18.5196 34 18.2652 34 18C34 17.7348 33.8946 17.4804 33.7071 17.2929C33.5196 17.1054 33.2652 17 33 17ZM42 11C41.8022 11 41.6089 11.0586 41.4444 11.1685C41.28 11.2784 41.1518 11.4346 41.0761 11.6173C41.0004 11.8 40.9806 12.0011 41.0192 12.1951C41.0578 12.3891 41.153 12.5673 41.2929 12.7071C41.4327 12.847 41.6109 12.9422 41.8049 12.9808C41.9989 13.0194 42.2 12.9996 42.3827 12.9239C42.5654 12.8482 42.7216 12.72 42.8315 12.5556C42.9414 12.3911 43 12.1978 43 12C43 11.7348 42.8946 11.4804 42.7071 11.2929C42.5196 11.1054 42.2652 11 42 11ZM42 17C41.8022 17 41.6089 17.0586 41.4444 17.1685C41.28 17.2784 41.1518 17.4346 41.0761 17.6173C41.0004 17.8 40.9806 18.0011 41.0192 18.1951C41.0578 18.3891 41.153 18.5673 41.2929 18.7071C41.4327 18.847 41.6109 18.9422 41.8049 18.9808C41.9989 19.0194 42.2 18.9996 42.3827 18.9239C42.5654 18.8482 42.7216 18.72 42.8315 18.5556C42.9414 18.3911 43 18.1978 43 18C43 17.7348 42.8946 17.4804 42.7071 17.2929C42.5196 17.1054 42.2652 17 42 17ZM46 11C46 10.2044 45.6839 9.44129 45.1213 8.87868C44.5587 8.31607 43.7956 8 43 8H29C28.2044 8 27.4413 8.31607 26.8787 8.87868C26.3161 9.44129 26 10.2044 26 11V13C26.0044 13.7401 26.2822 14.4524 26.78 15C26.2822 15.5476 26.0044 16.2599 26 17V19C26.0044 19.7401 26.2822 20.4524 26.78 21C26.2822 21.5476 26.0044 22.2599 26 23V25C26 25.7956 26.3161 26.5587 26.8787 27.1213C27.4413 27.6839 28.2044 28 29 28H43C43.7956 28 44.5587 27.6839 45.1213 27.1213C45.6839 26.5587 46 25.7956 46 25V23C45.9956 22.2599 45.7178 21.5476 45.22 21C45.7178 20.4524 45.9956 19.7401 46 19V17C45.9956 16.2599 45.7178 15.5476 45.22 15C45.7178 14.4524 45.9956 13.7401 46 13V11ZM44 25C44 25.2652 43.8946 25.5196 43.7071 25.7071C43.5196 25.8946 43.2652 26 43 26H29C28.7348 26 28.4804 25.8946 28.2929 25.7071C28.1054 25.5196 28 25.2652 28 25V23C28 22.7348 28.1054 22.4804 28.2929 22.2929C28.4804 22.1054 28.7348 22 29 22H43C43.2652 22 43.5196 22.1054 43.7071 22.2929C43.8946 22.4804 44 22.7348 44 23V25ZM44 19C44 19.2652 43.8946 19.5196 43.7071 19.7071C43.5196 19.8946 43.2652 20 43 20H29C28.7348 20 28.4804 19.8946 28.2929 19.7071C28.1054 19.5196 28 19.2652 28 19V17C28 16.7348 28.1054 16.4804 28.2929 16.2929C28.4804 16.1054 28.7348 16 29 16H43C43.2652 16 43.5196 16.1054 43.7071 16.2929C43.8946 16.4804 44 16.7348 44 17V19ZM44 13C44 13.2652 43.8946 13.5196 43.7071 13.7071C43.5196 13.8946 43.2652 14 43 14H29C28.7348 14 28.4804 13.8946 28.2929 13.7071C28.1054 13.5196 28 13.2652 28 13V11C28 10.7348 28.1054 10.4804 28.2929 10.2929C28.4804 10.1054 28.7348 10 29 10H43C43.2652 10 43.5196 10.1054 43.7071 10.2929C43.8946 10.4804 44 10.7348 44 11V13ZM39 11C38.8022 11 38.6089 11.0586 38.4444 11.1685C38.28 11.2784 38.1518 11.4346 38.0761 11.6173C38.0004 11.8 37.9806 12.0011 38.0192 12.1951C38.0578 12.3891 38.153 12.5673 38.2929 12.7071C38.4327 12.847 38.6109 12.9422 38.8049 12.9808C38.9989 13.0194 39.2 12.9996 39.3827 12.9239C39.5654 12.8482 39.7216 12.72 39.8315 12.5556C39.9414 12.3911 40 12.1978 40 12C40 11.7348 39.8946 11.4804 39.7071 11.2929C39.5196 11.1054 39.2652 11 39 11ZM33 11H30C29.7348 11 29.4804 11.1054 29.2929 11.2929C29.1054 11.4804 29 11.7348 29 12C29 12.2652 29.1054 12.5196 29.2929 12.7071C29.4804 12.8946 29.7348 13 30 13H33C33.2652 13 33.5196 12.8946 33.7071 12.7071C33.8946 12.5196 34 12.2652 34 12C34 11.7348 33.8946 11.4804 33.7071 11.2929C33.5196 11.1054 33.2652 11 33 11Z" fill="black"/>
</svg>
