<svg width="115" height="115" viewBox="0 0 115 115" fill="none" xmlns="http://www.w3.org/2000/svg">
<path fill-rule="evenodd" clip-rule="evenodd" d="M57.5281 79.4355C58.5205 79.4355 59.325 80.24 59.325 81.2324V96.9091C59.325 97.9015 58.5205 98.706 57.5281 98.706C56.5357 98.706 55.7312 97.9015 55.7312 96.9091V81.2324C55.7312 80.24 56.5357 79.4355 57.5281 79.4355Z" fill="black"/>
<path fill-rule="evenodd" clip-rule="evenodd" d="M58.642 14.5193C58.7633 15.5042 58.0632 16.401 57.0782 16.5223C54.4085 16.851 51.7356 17.5315 49.1192 18.5906C33.0542 25.0935 25.3026 43.3885 31.8056 59.4535C38.3086 75.5186 56.6036 83.2701 72.6686 76.7672C75.5373 75.6059 78.1384 74.0703 80.44 72.2404C81.2168 71.6228 82.3471 71.7518 82.9647 72.5286C83.5823 73.3054 83.4533 74.4358 82.6765 75.0534C80.1081 77.0954 77.2085 78.8065 74.017 80.0983C56.1122 87.346 35.7221 78.7068 28.4744 60.802C21.2267 42.8972 29.866 22.5071 47.7708 15.2594C50.6812 14.0812 53.66 13.3223 56.639 12.9555C57.624 12.8342 58.5207 13.5343 58.642 14.5193Z" fill="black"/>
<path fill-rule="evenodd" clip-rule="evenodd" d="M45.798 13.8022C46.6833 13.3537 47.7645 13.7079 48.213 14.5932L80.3323 78.0032C80.7808 78.8885 80.4266 79.9697 79.5413 80.4181C78.656 80.8665 77.5748 80.5124 77.1264 79.6271L45.007 16.2171C44.5586 15.3318 44.9128 14.2506 45.798 13.8022Z" fill="black"/>
<path d="M87.293 48.3911C87.293 63.0373 75.4199 74.9104 60.7737 74.9104C46.1275 74.9104 34.2544 63.0373 34.2544 48.3911C34.2544 33.7449 46.1275 21.8718 60.7737 21.8718C75.4199 21.8718 87.293 33.7449 87.293 48.3911Z" fill="white"/>
<path fill-rule="evenodd" clip-rule="evenodd" d="M89.0898 48.3911C89.0898 64.0297 76.4123 76.7073 60.7737 76.7073C45.1351 76.7073 32.4575 64.0297 32.4575 48.3911C32.4575 32.7525 45.1351 20.0749 60.7737 20.0749C76.4123 20.0749 89.0898 32.7525 89.0898 48.3911ZM60.7737 74.9104C75.4199 74.9104 87.293 63.0373 87.293 48.3911C87.293 33.7449 75.4199 21.8718 60.7737 21.8718C46.1275 21.8718 34.2544 33.7449 34.2544 48.3911C34.2544 63.0373 46.1275 74.9104 60.7737 74.9104Z" fill="black"/>
<path fill-rule="evenodd" clip-rule="evenodd" d="M52.3654 32.2925C52.6253 31.998 53.0464 31.9064 53.4052 32.0664L60.8701 35.397C60.8821 35.4023 60.8941 35.408 60.9058 35.4139L64.8106 37.3662C65.2017 37.5618 65.3952 38.0106 65.269 38.4292L63.0869 45.6645C62.9725 46.0439 62.623 46.3035 62.2267 46.3035H58.2401L58.5569 48.1408L62.6367 50.233C62.8833 50.3595 63.0577 50.5926 63.1094 50.8649C63.1611 51.1371 63.0843 51.418 62.9012 51.626L58.072 57.1138V60.3349C58.072 60.5965 57.958 60.8451 57.7598 61.0158L53.6254 64.576C53.3103 64.8473 52.8502 64.867 52.5131 64.6235L48.407 61.658L43.7283 58.8051C43.5373 58.6887 43.3966 58.5051 43.3338 58.2904L41.9556 53.5818C41.8937 53.3701 41.9117 53.1431 42.0063 52.9439L44.0156 48.7139L41.9902 43.917C41.8862 43.6707 41.8973 43.3908 42.0205 43.1535L45.1213 37.1816C45.1403 37.145 45.1618 37.1099 45.1855 37.0763L47.1379 34.32C47.3064 34.0822 47.5797 33.9409 47.8711 33.9409H50.911L52.3654 32.2925ZM53.276 33.9764L51.9901 35.4337C51.8196 35.627 51.5742 35.7377 51.3164 35.7377H48.3357L46.6876 38.0645L43.8097 43.6069L45.8276 48.3861C45.9273 48.6222 45.9214 48.8896 45.8115 49.1211L43.7763 53.4056L44.9606 57.452L49.3724 60.1421C49.3923 60.1542 49.4118 60.1672 49.4307 60.1808L52.9902 62.7516L56.2751 59.923V56.7747C56.2751 56.5562 56.3547 56.3452 56.4991 56.1812L60.7899 51.3053L57.3378 49.535C57.0865 49.4061 56.9104 49.1666 56.8624 48.8882L56.2882 45.5577C56.2431 45.2966 56.3157 45.0289 56.4864 44.8263C56.6571 44.6236 56.9086 44.5066 57.1735 44.5066H61.5593L63.3301 38.635L60.1199 37.0299L53.276 33.9764Z" fill="black"/>
<path fill-rule="evenodd" clip-rule="evenodd" d="M81.2548 42.9194C81.5303 43.0805 81.6997 43.3757 81.6997 43.6949V50.0485C81.6997 50.1774 81.6719 50.3048 81.6183 50.422L79.4897 55.0784V59.5789C79.4897 59.9192 79.2975 60.2303 78.9931 60.3825L72.6395 63.5592C72.3883 63.6848 72.0928 63.6857 71.8408 63.5617C71.5889 63.4376 71.4094 63.2028 71.3558 62.9271L70.389 57.9548C70.3563 57.7869 70.3723 57.6131 70.435 57.454L72.1347 53.1393L71.3557 49.1142C71.3153 48.9058 71.3501 48.6898 71.4538 48.5045L73.3875 45.0515C73.527 44.8024 73.7767 44.6344 74.06 44.599L78.3047 44.0684L80.3608 42.9119C80.639 42.7554 80.9793 42.7582 81.2548 42.9194ZM79.9028 45.2311L79.0318 45.7211C78.9302 45.7782 78.8184 45.815 78.7027 45.8295L74.7334 46.3257L73.1823 49.0956L73.9485 53.0546C73.981 53.2222 73.965 53.3957 73.9024 53.5546L72.2028 57.8689L72.8939 61.4231L77.6929 59.0236V54.8827C77.6929 54.7538 77.7206 54.6264 77.7742 54.5092L79.9028 49.8529V45.2311Z" fill="black"/>
<path d="M57.2674 91.3712C48.7983 91.3712 41.9327 94.7807 41.9327 98.9864H72.6021C72.6021 94.7807 65.7365 91.3712 57.2674 91.3712Z" fill="white"/>
<path fill-rule="evenodd" clip-rule="evenodd" d="M41.9327 100.783C40.9404 100.783 40.1359 99.9788 40.1359 98.9864C40.1359 95.8298 42.6635 93.463 45.625 91.9923C48.6974 90.4666 52.8161 89.5744 57.2674 89.5744C61.7187 89.5744 65.8374 90.4666 68.9099 91.9923C71.8713 93.463 74.399 95.8298 74.399 98.9864C74.399 99.9788 73.5945 100.783 72.6021 100.783H41.9327ZM72.1727 97.1896C70.5465 93.851 64.4901 91.3712 57.2674 91.3712C50.0448 91.3712 43.9884 93.851 42.3621 97.1896C42.0815 97.7657 41.9327 98.3674 41.9327 98.9864H72.6021C72.6021 98.3674 72.4534 97.7657 72.1727 97.1896Z" fill="black"/>
<path d="M37.7076 100.746C37.7076 100.27 38.093 99.885 38.5683 99.885H76.4877C76.963 99.885 77.3483 100.27 77.3483 100.746C77.3483 101.221 76.963 101.606 76.4877 101.606H38.5683C38.093 101.606 37.7076 101.221 37.7076 100.746Z" fill="black"/>
<path fill-rule="evenodd" clip-rule="evenodd" d="M76.4877 101.606C76.963 101.606 77.3483 101.221 77.3483 100.746C77.3483 100.27 76.963 99.885 76.4877 99.885H38.5683C38.093 99.885 37.7076 100.27 37.7076 100.746C37.7076 101.221 38.093 101.606 38.5683 101.606H76.4877ZM38.5683 98.0881H76.4877C77.9554 98.0881 79.1452 99.2779 79.1452 100.746C79.1452 102.213 77.9554 103.403 76.4877 103.403H38.5683C37.1006 103.403 35.9108 102.213 35.9108 100.746C35.9108 99.2779 37.1006 98.0881 38.5683 98.0881Z" fill="black"/>
</svg>
