<svg width="92" height="92" viewBox="0 0 92 92" fill="none" xmlns="http://www.w3.org/2000/svg">
<path d="M10.0219 50.8933C10.0219 48.5587 10.661 47.3434 11.8762 46.416L49.2303 61.8307C47.3434 67.5873 48.9155 72.7808 50.7973 74.2393L12.6443 56.8097C11.5622 55.9629 10.0219 53.8675 10.0219 50.8933Z" fill="white"/>
<path fill-rule="evenodd" clip-rule="evenodd" d="M11.0041 45.2732C11.4108 44.9629 11.9517 44.892 12.4246 45.0872L49.7786 60.5019C50.4741 60.7889 50.8306 61.5635 50.5963 62.2784C49.7287 64.9252 49.6639 67.4219 50.0157 69.3944C50.3813 71.4445 51.1461 72.6909 51.6779 73.103C52.2548 73.5501 52.4051 74.3586 52.0274 74.9831C51.6497 75.6077 50.8639 75.85 50.2 75.5468L12.047 58.1172C11.9442 58.0703 11.8473 58.0114 11.7583 57.9418C10.3726 56.8573 8.58435 54.3631 8.58435 50.8933C8.58435 49.6025 8.75983 48.5016 9.1766 47.5502C9.60288 46.577 10.2389 45.8572 11.0041 45.2732ZM12.6443 56.8097C11.5622 55.9629 10.0219 53.8675 10.0219 50.8933C10.0219 48.5587 10.661 47.3434 11.8762 46.416L49.2303 61.8307C47.9189 65.8316 48.2783 69.5605 49.2513 71.9526C49.6783 73.0022 50.2234 73.7944 50.7973 74.2392L12.6443 56.8097Z" fill="black"/>
<path d="M81.9782 31.7338L45.8463 17.7609L11.6903 46.5535L50.9273 63.0669L81.9782 31.7338Z" fill="black"/>
<path fill-rule="evenodd" clip-rule="evenodd" d="M44.9198 16.6618C45.3212 16.3234 45.8751 16.2308 46.3648 16.4201L82.4967 30.393C82.949 30.568 83.2827 30.9592 83.384 31.4335C83.4853 31.9078 83.3407 32.4011 82.9993 32.7456L51.9484 64.0788C51.5354 64.4955 50.9105 64.6195 50.3697 64.3919L11.1327 47.8785C10.6715 47.6844 10.3445 47.2644 10.2692 46.7698C10.1939 46.2751 10.3813 45.7769 10.7638 45.4544L44.9198 16.6618ZM45.8463 17.7609L81.9782 31.7338L50.9273 63.0669L11.6903 46.5535L45.8463 17.7609Z" fill="black"/>
<path d="M61.319 35.0148L45.5205 28.8105L42.4878 31.4126L58.1529 37.973L61.319 35.0148Z" fill="white"/>
<path d="M81.9466 42.4501C78.4927 39.6358 79.1323 35.1265 81.7867 31.8005L49.4858 62.3101C47.5032 67.0753 49.1121 71.6824 50.8293 74.223L81.9466 42.4501Z" fill="white"/>
<path fill-rule="evenodd" clip-rule="evenodd" d="M82.76 30.7426C83.3155 31.2536 83.3811 32.1072 82.9103 32.6972C81.733 34.1723 81.061 35.8411 81.0129 37.3626C80.9662 38.8356 81.4948 40.2276 82.8547 41.3357C83.1679 41.5909 83.3592 41.9661 83.3819 42.3695C83.4045 42.7729 83.2564 43.1672 82.9737 43.4559L51.8564 75.2288C51.5543 75.5372 51.1297 75.6935 50.6997 75.6546C50.2698 75.6157 49.8801 75.3856 49.6384 75.028C47.7506 72.235 45.9306 67.1128 48.1587 61.7579C48.2362 61.5716 48.3521 61.4037 48.4988 61.2651L80.7997 30.7554C81.3484 30.2372 82.2045 30.2315 82.76 30.7426ZM81.7867 31.8005L49.4859 62.3101C47.8018 66.3576 48.709 70.2912 50.0728 72.941C50.3146 73.4109 50.5707 73.8404 50.8294 74.223L81.9466 42.4501C81.592 42.1611 81.2806 41.8543 81.01 41.5328C79.5746 39.8268 79.2904 37.7055 79.8214 35.6342C80.1653 34.2933 80.8507 32.9733 81.7867 31.8005Z" fill="black"/>
<path fill-rule="evenodd" clip-rule="evenodd" d="M79.9366 42.0783C80.2127 42.3636 80.2053 42.8186 79.92 43.0947L57.9173 64.3939C57.6321 64.67 57.177 64.6626 56.9009 64.3773C56.6248 64.0921 56.6322 63.6371 56.9174 63.361L78.9202 42.0618C79.2054 41.7857 79.6605 41.7931 79.9366 42.0783Z" fill="black"/>
<path fill-rule="evenodd" clip-rule="evenodd" d="M78.6677 40.2985C78.9377 40.5894 78.9207 41.0442 78.6298 41.3142L64.4303 54.4903C64.1393 54.7603 63.6846 54.7433 63.4145 54.4523C63.1445 54.1613 63.1615 53.7066 63.4525 53.4366L77.652 40.2605C77.943 39.9905 78.3977 40.0075 78.6677 40.2985Z" fill="black"/>
<path fill-rule="evenodd" clip-rule="evenodd" d="M17.7977 54.8895C17.9532 54.5242 18.3753 54.3542 18.7406 54.5096L32.434 60.3379C32.7993 60.4934 32.9693 60.9155 32.8139 61.2807C32.6584 61.646 32.2363 61.8161 31.871 61.6606L18.1776 55.8323C17.8124 55.6768 17.6423 55.2547 17.7977 54.8895Z" fill="black"/>
</svg>
