<svg width="72" height="56" viewBox="0 0 72 56" fill="none" xmlns="http://www.w3.org/2000/svg">
<g opacity="0.5">
<path d="M8.28906 46.1622H7.14062V41.6915H2.06836V46.1622H0.919922V36.3594H2.06836V40.6592H7.14062V36.3594H8.28906V46.1622ZM16.335 42.9424H11.3926C11.4108 43.7217 11.6204 44.3233 12.0215 44.7471C12.4225 45.171 12.974 45.3829 13.6758 45.3829C14.4642 45.3829 15.1888 45.1231 15.8496 44.6036V45.6563C15.2344 46.1029 14.4209 46.3262 13.4092 46.3262C12.4202 46.3262 11.6432 46.0095 11.0781 45.376C10.513 44.738 10.2305 43.8425 10.2305 42.6895C10.2305 41.6003 10.5381 40.7139 11.1533 40.0303C11.7731 39.3422 12.541 38.9981 13.457 38.9981C14.373 38.9981 15.0817 39.2943 15.583 39.8868C16.0843 40.4792 16.335 41.3018 16.335 42.3546V42.9424ZM15.1865 41.9922C15.182 41.3451 15.0247 40.8415 14.7148 40.4815C14.4095 40.1215 13.9834 39.9415 13.4365 39.9415C12.9079 39.9415 12.459 40.1306 12.0898 40.5089C11.7207 40.8871 11.4928 41.3816 11.4062 41.9922H15.1865ZM23.0479 46.1622H21.9268V45.0684H21.8994C21.4118 45.907 20.694 46.3262 19.7461 46.3262C19.0488 46.3262 18.502 46.1417 18.1055 45.7725C17.7135 45.4034 17.5176 44.9135 17.5176 44.3028C17.5176 42.9949 18.2878 42.2338 19.8281 42.0196L21.9268 41.7256C21.9268 40.5362 21.446 39.9415 20.4844 39.9415C19.6413 39.9415 18.8802 40.2286 18.2012 40.8028V39.6544C18.8893 39.2169 19.6823 38.9981 20.5801 38.9981C22.2253 38.9981 23.0479 39.8686 23.0479 41.6094V46.1622ZM21.9268 42.6212L20.2383 42.8536C19.7188 42.9265 19.3268 43.0564 19.0625 43.2432C18.7982 43.4255 18.666 43.7514 18.666 44.2208C18.666 44.5626 18.7868 44.8428 19.0283 45.0616C19.2744 45.2758 19.6003 45.3829 20.0059 45.3829C20.5618 45.3829 21.0199 45.1892 21.3799 44.8018C21.7445 44.4099 21.9268 43.9154 21.9268 43.3184V42.6212ZM31.1348 46.1622H30.0137V44.9727H29.9863C29.4668 45.8751 28.6647 46.3262 27.5801 46.3262C26.7005 46.3262 25.9964 46.0141 25.4678 45.3897C24.9437 44.7608 24.6816 43.9063 24.6816 42.8262C24.6816 41.6687 24.9733 40.7413 25.5566 40.044C26.14 39.3467 26.917 38.9981 27.8877 38.9981C28.8493 38.9981 29.5488 39.3764 29.9863 40.1329H30.0137V35.7989H31.1348V46.1622ZM30.0137 42.9971V41.9649C30.0137 41.3998 29.8268 40.9213 29.4531 40.5294C29.0794 40.1374 28.6055 39.9415 28.0312 39.9415C27.3477 39.9415 26.8099 40.1921 26.418 40.6934C26.026 41.1947 25.8301 41.8874 25.8301 42.7715C25.8301 43.5782 26.0169 44.2162 26.3906 44.6856C26.7689 45.1505 27.2747 45.3829 27.9082 45.3829C28.5326 45.3829 29.0384 45.1573 29.4258 44.7061C29.8177 44.2549 30.0137 43.6853 30.0137 42.9971ZM32.9805 45.9092V44.7061C33.5911 45.1573 34.2633 45.3829 34.9971 45.3829C35.9814 45.3829 36.4736 45.0547 36.4736 44.3985C36.4736 44.2116 36.4303 44.0544 36.3438 43.9268C36.2617 43.7947 36.1478 43.6784 36.002 43.5782C35.8607 43.4779 35.6921 43.3891 35.4961 43.3116C35.3047 43.2296 35.0973 43.1452 34.874 43.0587C34.5641 42.9356 34.2907 42.8126 34.0537 42.6895C33.8213 42.5619 33.6253 42.4206 33.4658 42.2657C33.3109 42.1062 33.1924 41.9262 33.1104 41.7256C33.0329 41.5251 32.9941 41.2904 32.9941 41.0215C32.9941 40.6934 33.0693 40.404 33.2197 40.1534C33.3701 39.8982 33.5706 39.6863 33.8213 39.5176C34.0719 39.3445 34.3568 39.2146 34.6758 39.128C34.9993 39.0414 35.332 38.9981 35.6738 38.9981C36.2799 38.9981 36.8223 39.1029 37.3008 39.3126V40.4473C36.7858 40.1101 36.1934 39.9415 35.5234 39.9415C35.3138 39.9415 35.1247 39.9665 34.9561 40.0167C34.7874 40.0622 34.6416 40.1283 34.5186 40.2149C34.4001 40.3015 34.3066 40.4063 34.2383 40.5294C34.1745 40.6478 34.1426 40.78 34.1426 40.9258C34.1426 41.1081 34.1745 41.2608 34.2383 41.3839C34.3066 41.5069 34.4046 41.6163 34.5322 41.712C34.6598 41.8077 34.8148 41.8943 34.9971 41.9717C35.1794 42.0492 35.3867 42.1335 35.6191 42.2247C35.929 42.3432 36.207 42.4662 36.4531 42.5938C36.6992 42.7169 36.9089 42.8581 37.082 43.0176C37.2552 43.1726 37.3874 43.3526 37.4785 43.5577C37.5742 43.7628 37.6221 44.0066 37.6221 44.2891C37.6221 44.6355 37.5446 44.9363 37.3896 45.1915C37.2393 45.4467 37.0365 45.6586 36.7812 45.8272C36.526 45.9958 36.2321 46.1212 35.8994 46.2032C35.5667 46.2852 35.2181 46.3262 34.8535 46.3262C34.1335 46.3262 33.5091 46.1872 32.9805 45.9092ZM40.5 45.1505H40.4727V49.3819H39.3516V39.1622H40.4727V40.3926H40.5C41.0514 39.463 41.8581 38.9981 42.9199 38.9981C43.8223 38.9981 44.5264 39.3126 45.0322 39.9415C45.5381 40.5658 45.791 41.4044 45.791 42.4571C45.791 43.6283 45.5062 44.5671 44.9365 45.2735C44.3669 45.9753 43.5876 46.3262 42.5986 46.3262C41.6917 46.3262 40.9922 45.9343 40.5 45.1505ZM40.4727 42.3272V43.3047C40.4727 43.8835 40.6595 44.3757 41.0332 44.7813C41.4115 45.1824 41.89 45.3829 42.4688 45.3829C43.1478 45.3829 43.6787 45.1231 44.0615 44.6036C44.4489 44.084 44.6426 43.3617 44.6426 42.4366C44.6426 41.6573 44.4626 41.0466 44.1025 40.6046C43.7425 40.1625 43.2549 39.9415 42.6396 39.9415C41.988 39.9415 41.4639 40.1693 41.0674 40.6251C40.6709 41.0762 40.4727 41.6436 40.4727 42.3272ZM52.5928 46.1622H51.4717V45.0684H51.4443C50.9567 45.907 50.2389 46.3262 49.291 46.3262C48.5938 46.3262 48.0469 46.1417 47.6504 45.7725C47.2585 45.4034 47.0625 44.9135 47.0625 44.3028C47.0625 42.9949 47.8327 42.2338 49.373 42.0196L51.4717 41.7256C51.4717 40.5362 50.9909 39.9415 50.0293 39.9415C49.1862 39.9415 48.4251 40.2286 47.7461 40.8028V39.6544C48.4342 39.2169 49.2272 38.9981 50.125 38.9981C51.7702 38.9981 52.5928 39.8686 52.5928 41.6094V46.1622ZM51.4717 42.6212L49.7832 42.8536C49.2637 42.9265 48.8717 43.0564 48.6074 43.2432C48.3431 43.4255 48.2109 43.7514 48.2109 44.2208C48.2109 44.5626 48.3317 44.8428 48.5732 45.0616C48.8193 45.2758 49.1452 45.3829 49.5508 45.3829C50.1068 45.3829 50.5648 45.1892 50.9248 44.8018C51.2894 44.4099 51.4717 43.9154 51.4717 43.3184V42.6212ZM59.4766 45.8409C58.9388 46.1644 58.3008 46.3262 57.5625 46.3262C56.5645 46.3262 55.7578 46.0027 55.1426 45.3555C54.5319 44.7038 54.2266 43.8607 54.2266 42.8262C54.2266 41.6732 54.557 40.7481 55.2178 40.0508C55.8786 39.349 56.7604 38.9981 57.8633 38.9981C58.4785 38.9981 59.0208 39.112 59.4902 39.3399V40.4883C58.9707 40.1238 58.4147 39.9415 57.8223 39.9415C57.1068 39.9415 56.5189 40.199 56.0586 40.7139C55.6029 41.2243 55.375 41.8965 55.375 42.7305C55.375 43.5508 55.5892 44.198 56.0176 44.6719C56.4505 45.1459 57.0293 45.3829 57.7539 45.3829C58.3646 45.3829 58.9388 45.1801 59.4766 44.7745V45.8409ZM66.7979 42.9424H61.8555C61.8737 43.7217 62.0833 44.3233 62.4844 44.7471C62.8854 45.171 63.4368 45.3829 64.1387 45.3829C64.9271 45.3829 65.6517 45.1231 66.3125 44.6036V45.6563C65.6973 46.1029 64.8838 46.3262 63.8721 46.3262C62.8831 46.3262 62.1061 46.0095 61.541 45.376C60.9759 44.738 60.6934 43.8425 60.6934 42.6895C60.6934 41.6003 61.001 40.7139 61.6162 40.0303C62.236 39.3422 63.0039 38.9981 63.9199 38.9981C64.8359 38.9981 65.5446 39.2943 66.0459 39.8868C66.5472 40.4792 66.7979 41.3018 66.7979 42.3546V42.9424ZM65.6494 41.9922C65.6449 41.3451 65.4876 40.8415 65.1777 40.4815C64.8724 40.1215 64.4463 39.9415 63.8994 39.9415C63.3708 39.9415 62.9219 40.1306 62.5527 40.5089C62.1836 40.8871 61.9557 41.3816 61.8691 41.9922H65.6494Z" fill="black"/>
<path d="M44 17.18V15C44 12.8783 43.1571 10.8434 41.6569 9.34315C40.1566 7.84285 38.1217 7 36 7C33.8783 7 31.8434 7.84285 30.3431 9.34315C28.8429 10.8434 28 12.8783 28 15V17.18C27.4165 17.3863 26.911 17.7681 26.5529 18.2729C26.1949 18.7778 26.0017 19.3811 26 20V22C26 22.7956 26.3161 23.5587 26.8787 24.1213C27.4413 24.6839 28.2044 25 29 25H32C32.2652 25 32.5196 24.8946 32.7071 24.7071C32.8946 24.5196 33 24.2652 33 24V18C33 17.7348 32.8946 17.4804 32.7071 17.2929C32.5196 17.1054 32.2652 17 32 17H30V15C30 13.4087 30.6321 11.8826 31.7574 10.7574C32.8826 9.63214 34.4087 9 36 9C37.5913 9 39.1174 9.63214 40.2426 10.7574C41.3679 11.8826 42 13.4087 42 15V17H40C39.7348 17 39.4804 17.1054 39.2929 17.2929C39.1054 17.4804 39 17.7348 39 18V24C39 24.2652 39.1054 24.5196 39.2929 24.7071C39.4804 24.8946 39.7348 25 40 25H43C43.7956 25 44.5587 24.6839 45.1213 24.1213C45.6839 23.5587 46 22.7956 46 22V20C45.9983 19.3811 45.8051 18.7778 45.4471 18.2729C45.089 17.7681 44.5835 17.3863 44 17.18ZM31 19V23H29C28.7348 23 28.4804 22.8946 28.2929 22.7071C28.1054 22.5196 28 22.2652 28 22V20C28 19.7348 28.1054 19.4804 28.2929 19.2929C28.4804 19.1054 28.7348 19 29 19H31ZM44 22C44 22.2652 43.8946 22.5196 43.7071 22.7071C43.5196 22.8946 43.2652 23 43 23H41V19H43C43.2652 19 43.5196 19.1054 43.7071 19.2929C43.8946 19.4804 44 19.7348 44 20V22Z" fill="black"/>
</g>
</svg>
