<svg width="125" height="49" viewBox="0 0 125 49" fill="none" xmlns="http://www.w3.org/2000/svg">
<g clip-path="url(#clip0_1_385)">
<path d="M64 35C63.4477 35 63 34.5523 63 34V26C63 25.4477 63.4477 25 64 25H70C70.5523 25 71 25.4477 71 26V34C71 34.5523 70.5523 35 70 35H64ZM54 27C53.4477 27 53 26.5523 53 26V18C53 17.4477 53.4477 17 54 17H60C60.5523 17 61 17.4477 61 18V26C61 26.5523 60.5523 27 60 27H54ZM58.5 25C58.7761 25 59 24.7761 59 24.5V19.5C59 19.2239 58.7761 19 58.5 19H55.5C55.2239 19 55 19.2239 55 19.5V24.5C55 24.7761 55.2239 25 55.5 25H58.5ZM54 35C53.4477 35 53 34.5523 53 34V30C53 29.4477 53.4477 29 54 29H60C60.5523 29 61 29.4477 61 30V34C61 34.5523 60.5523 35 60 35H54ZM55 32.5C55 32.7761 55.2239 33 55.5 33H58.5C58.7761 33 59 32.7761 59 32.5V31.5C59 31.2239 58.7761 31 58.5 31H55.5C55.2239 31 55 31.2239 55 31.5V32.5ZM65 32.5C65 32.7761 65.2239 33 65.5 33H68.5C68.7761 33 69 32.7761 69 32.5V27.5C69 27.2239 68.7761 27 68.5 27H65.5C65.2239 27 65 27.2239 65 27.5V32.5ZM63 18C63 17.4477 63.4477 17 64 17H70C70.5523 17 71 17.4477 71 18V22C71 22.5523 70.5523 23 70 23H64C63.4477 23 63 22.5523 63 22V18ZM65.5 19C65.2239 19 65 19.2239 65 19.5V20.5C65 20.7761 65.2239 21 65.5 21H68.5C68.7761 21 69 20.7761 69 20.5V19.5C69 19.2239 68.7761 19 68.5 19H65.5Z" fill="#F6543E"/>
</g>
<defs>
<clipPath id="clip0_1_385">
<rect width="24" height="24" fill="white" transform="translate(50 14)"/>
</clipPath>
</defs>
</svg>
