<svg width="27" height="28" viewBox="0 0 27 28" fill="none" xmlns="http://www.w3.org/2000/svg">
<g filter="url(#filter0_di_1_87)">
<g clip-path="url(#clip0_1_87)">
<path d="M5 12C5 11.135 5.11 10.297 5.316 9.496C5.86847 9.52504 6.4182 9.40075 6.90444 9.13687C7.39068 8.87299 7.79448 8.47979 8.07121 8.00074C8.34793 7.5217 8.48681 6.97546 8.47247 6.42242C8.45814 5.86938 8.29117 5.33107 7.99 4.867C9.19894 3.67757 10.6908 2.8155 12.325 2.362C12.576 2.85547 12.9586 3.26987 13.4306 3.55931C13.9025 3.84875 14.4454 4.00195 14.999 4.00195C15.5526 4.00195 16.0955 3.84875 16.5674 3.55931C17.0394 3.26987 17.422 2.85547 17.673 2.362C19.3072 2.8155 20.7991 3.67757 22.008 4.867C21.7065 5.33115 21.5393 5.86967 21.5248 6.42296C21.5104 6.97626 21.6493 7.52276 21.9262 8.00201C22.2031 8.48126 22.6071 8.87457 23.0937 9.13841C23.5802 9.40226 24.1303 9.52637 24.683 9.497C24.889 10.297 24.999 11.135 24.999 12C24.999 12.865 24.889 13.703 24.683 14.504C24.1305 14.4748 23.5806 14.5989 23.0942 14.8627C22.6078 15.1265 22.2039 15.5197 21.927 15.9988C21.6502 16.4779 21.5112 17.0242 21.5255 17.5773C21.5398 18.1304 21.7068 18.6689 22.008 19.133C20.7991 20.3224 19.3072 21.1845 17.673 21.638C17.422 21.1445 17.0394 20.7301 16.5674 20.4407C16.0955 20.1512 15.5526 19.998 14.999 19.998C14.4454 19.998 13.9025 20.1512 13.4306 20.4407C12.9586 20.7301 12.576 21.1445 12.325 21.638C10.6908 21.1845 9.19894 20.3224 7.99 19.133C8.29151 18.6688 8.45873 18.1303 8.47317 17.577C8.48761 17.0237 8.3487 16.4772 8.07181 15.998C7.79492 15.5187 7.39085 15.1254 6.90431 14.8616C6.41776 14.5977 5.8677 14.4736 5.315 14.503C5.11 13.704 5 12.866 5 12ZM9.804 15C10.434 16.091 10.614 17.346 10.368 18.524C10.776 18.814 11.21 19.065 11.665 19.274C12.5817 18.4528 13.7693 17.9991 15 18C16.26 18 17.438 18.471 18.335 19.274C18.79 19.065 19.224 18.814 19.632 18.524C19.3794 17.32 19.5803 16.0651 20.196 15C20.8106 13.9344 21.797 13.1332 22.966 12.75C23.0122 12.2511 23.0122 11.7489 22.966 11.25C21.7966 10.8671 20.8099 10.0658 20.195 9C19.5793 7.93493 19.3784 6.68004 19.631 5.476C19.2231 5.18592 18.7889 4.93482 18.334 4.726C17.4176 5.54693 16.2303 6.00061 15 6C13.7693 6.00085 12.5817 5.54716 11.665 4.726C11.2101 4.93482 10.7759 5.18593 10.368 5.476C10.6206 6.68004 10.4197 7.93493 9.804 9C9.18937 10.0656 8.20298 10.8668 7.034 11.25C6.98775 11.7489 6.98775 12.2511 7.034 12.75C8.20335 13.1329 9.19013 13.9342 9.805 15H9.804ZM15 15C14.2044 15 13.4413 14.6839 12.8787 14.1213C12.3161 13.5587 12 12.7956 12 12C12 11.2044 12.3161 10.4413 12.8787 9.87868C13.4413 9.31607 14.2044 9 15 9C15.7956 9 16.5587 9.31607 17.1213 9.87868C17.6839 10.4413 18 11.2044 18 12C18 12.7956 17.6839 13.5587 17.1213 14.1213C16.5587 14.6839 15.7956 15 15 15ZM15 13C15.2652 13 15.5196 12.8946 15.7071 12.7071C15.8946 12.5196 16 12.2652 16 12C16 11.7348 15.8946 11.4804 15.7071 11.2929C15.5196 11.1054 15.2652 11 15 11C14.7348 11 14.4804 11.1054 14.2929 11.2929C14.1054 11.4804 14 11.7348 14 12C14 12.2652 14.1054 12.5196 14.2929 12.7071C14.4804 12.8946 14.7348 13 15 13Z" fill="white"/>
</g>
</g>
<defs>
<filter id="filter0_di_1_87" x="0" y="0" width="27" height="28" filterUnits="userSpaceOnUse" color-interpolation-filters="sRGB">
<feFlood flood-opacity="0" result="BackgroundImageFix"/>
<feColorMatrix in="SourceAlpha" type="matrix" values="0 0 0 0 0 0 0 0 0 0 0 0 0 0 0 0 0 0 127 0" result="hardAlpha"/>
<feOffset dx="-2" dy="3"/>
<feGaussianBlur stdDeviation="0.5"/>
<feColorMatrix type="matrix" values="0 0 0 0 0 0 0 0 0 0 0 0 0 0 0 0 0 0 0.1 0"/>
<feBlend mode="normal" in2="BackgroundImageFix" result="effect1_dropShadow_1_87"/>
<feBlend mode="normal" in="SourceGraphic" in2="effect1_dropShadow_1_87" result="shape"/>
<feColorMatrix in="SourceAlpha" type="matrix" values="0 0 0 0 0 0 0 0 0 0 0 0 0 0 0 0 0 0 127 0" result="hardAlpha"/>
<feOffset dx="-1" dy="1"/>
<feGaussianBlur stdDeviation="1"/>
<feComposite in2="hardAlpha" operator="arithmetic" k2="-1" k3="1"/>
<feColorMatrix type="matrix" values="0 0 0 0 1 0 0 0 0 1 0 0 0 0 1 0 0 0 0.25 0"/>
<feBlend mode="normal" in2="shape" result="effect2_innerShadow_1_87"/>
</filter>
<clipPath id="clip0_1_87">
<rect width="24" height="24" fill="white" transform="translate(3)"/>
</clipPath>
</defs>
</svg>
