<svg width="125" height="49" viewBox="0 0 125 49" fill="none" xmlns="http://www.w3.org/2000/svg">
<g clip-path="url(#clip0_1_375)">
<path d="M71 35H69V33C69 32.2044 68.6839 31.4413 68.1213 30.8787C67.5587 30.3161 66.7956 30 66 30H60C59.2044 30 58.4413 30.3161 57.8787 30.8787C57.3161 31.4413 57 32.2044 57 33V35H55V33C55 31.6739 55.5268 30.4021 56.4645 29.4645C57.4021 28.5268 58.6739 28 60 28H66C67.3261 28 68.5979 28.5268 69.5355 29.4645C70.4732 30.4021 71 31.6739 71 33V35ZM63 26C62.2121 26 61.4319 25.8448 60.7039 25.5433C59.9759 25.2417 59.3145 24.7998 58.7574 24.2426C58.2002 23.6855 57.7583 23.0241 57.4567 22.2961C57.1552 21.5681 57 20.7879 57 20C57 19.2121 57.1552 18.4319 57.4567 17.7039C57.7583 16.9759 58.2002 16.3145 58.7574 15.7574C59.3145 15.2002 59.9759 14.7583 60.7039 14.4567C61.4319 14.1552 62.2121 14 63 14C64.5913 14 66.1174 14.6321 67.2426 15.7574C68.3679 16.8826 69 18.4087 69 20C69 21.5913 68.3679 23.1174 67.2426 24.2426C66.1174 25.3679 64.5913 26 63 26ZM63 24C64.0609 24 65.0783 23.5786 65.8284 22.8284C66.5786 22.0783 67 21.0609 67 20C67 18.9391 66.5786 17.9217 65.8284 17.1716C65.0783 16.4214 64.0609 16 63 16C61.9391 16 60.9217 16.4214 60.1716 17.1716C59.4214 17.9217 59 18.9391 59 20C59 21.0609 59.4214 22.0783 60.1716 22.8284C60.9217 23.5786 61.9391 24 63 24Z" fill="#B9C1D9"/>
</g>
<defs>
<clipPath id="clip0_1_375">
<rect width="24" height="24" fill="white" transform="translate(51 13)"/>
</clipPath>
</defs>
</svg>
