<svg width="125" height="49" viewBox="0 0 125 49" fill="none" xmlns="http://www.w3.org/2000/svg">
<g clip-path="url(#clip0_1_380)">
<path d="M69.375 29.103C70.0239 27.5613 70.1732 25.855 69.8021 24.224C69.431 22.593 68.558 21.1194 67.3059 20.0103C66.0539 18.9011 64.4857 18.2123 62.8218 18.0406C61.158 17.8689 59.4822 18.2229 58.03 19.053L57.038 17.316C58.5556 16.4486 60.2742 15.9944 62.0222 15.9986C63.7702 16.0028 65.4866 16.4653 67 17.34C71.49 19.932 73.21 25.482 71.117 30.11L72.459 30.884L68.294 33.098L68.129 28.384L69.375 29.103ZM54.625 22.897C53.9762 24.4387 53.8268 26.145 54.1979 27.776C54.5691 29.407 55.442 30.8806 56.6941 31.9897C57.9461 33.0989 59.5143 33.7877 61.1782 33.9594C62.842 34.1311 64.5178 33.7771 65.97 32.947L66.962 34.684C65.4444 35.5514 63.7258 36.0056 61.9778 36.0014C60.2298 35.9972 58.5134 35.5347 57 34.66C52.51 32.068 50.79 26.518 52.883 21.89L51.54 21.117L55.705 18.903L55.87 23.617L54.624 22.898L54.625 22.897ZM63.415 28.828L60.584 26L57.756 28.828L56.342 27.414L60.585 23.172L63.414 26L66.243 23.172L67.657 24.586L63.414 28.828H63.415Z" fill="#B9C1D9"/>
</g>
<defs>
<clipPath id="clip0_1_380">
<rect width="24" height="24" fill="white" transform="translate(50 14)"/>
</clipPath>
</defs>
</svg>
